<?xml version="1.0" standalone="no"?>
<!DOCTYPE svg PUBLIC "-//W3C//DTD SVG 20010904//EN"
 "http://www.w3.org/TR/2001/REC-SVG-20010904/DTD/svg10.dtd">
<svg version="1.0" xmlns="http://www.w3.org/2000/svg"
 width="521.000000pt" height="517.000000pt" viewBox="0 0 521.000000 517.000000"
 preserveAspectRatio="xMidYMid meet">

<g transform="translate(0.000000,517.000000) scale(0.100000,-0.100000)"
fill="#000000" stroke="none">
<path d="M90 4010 l0 -1080 70 0 70 0 0 -95 0 -95 70 0 70 0 0 1030 0 1030
1030 0 1030 0 0 70 0 70 -90 0 -90 0 0 75 0 75 -1080 0 -1080 0 0 -1080z"/>
<path d="M2930 5015 l0 -75 -90 0 -90 0 0 -70 0 -70 1025 0 1025 0 2 -1027 3
-1028 57 -3 57 -3 3 93 3 93 83 3 82 3 0 1079 0 1080 -1080 0 -1080 0 0 -75z"/>
<path d="M670 3680 l0 -830 55 0 55 0 0 -70 0 -70 55 0 55 0 0 785 0 785 788
2 787 3 3 53 3 52 -70 0 -70 0 -3 58 -3 57 -827 3 -828 2 0 -830z"/>
<path d="M2850 4450 l0 -60 -70 0 -70 0 0 -55 0 -55 790 0 790 0 0 -785 0
-785 45 0 45 0 0 70 0 70 65 0 65 0 0 830 0 830 -830 0 -830 0 0 -60z"/>
<path d="M1190 3385 l0 -605 40 0 40 0 0 -55 0 -55 40 0 40 0 0 580 0 580 575
0 575 0 0 40 0 40 -50 0 -50 0 0 40 0 40 -605 0 -605 0 0 -605z"/>
<path d="M2780 3950 l0 -40 -50 0 -50 0 0 -40 0 -40 575 0 575 0 0 -581 0
-580 33 3 c31 3 32 4 35 56 l3 52 45 0 44 0 0 605 0 605 -605 0 -605 0 0 -40z"/>
<path d="M1642 3123 l3 -408 28 -3 c23 -3 27 -8 27 -33 0 -24 4 -29 25 -29
l25 0 0 385 0 385 391 0 390 0 -3 28 c-2 22 -8 28 -35 30 -27 3 -33 7 -33 28
l0 24 -410 0 -410 0 2 -407z"/>
<path d="M2720 3505 c0 -22 -4 -25 -35 -25 -32 0 -35 -2 -35 -30 l0 -30 390 0
390 0 0 -385 c0 -378 0 -385 20 -385 16 0 20 7 20 30 0 27 3 30 30 30 l30 0 0
410 0 410 -405 0 -405 0 0 -25z"/>
<path d="M1700 2491 c0 -25 -4 -30 -27 -33 l-28 -3 -3 -407 -2 -408 410 0 410
0 0 25 c0 22 4 25 35 25 32 0 35 2 35 30 l0 30 -390 0 -390 0 0 385 0 385 -25
0 c-21 0 -25 -5 -25 -29z"/>
<path d="M3430 2135 l0 -385 -390 0 -390 0 0 -30 c0 -28 3 -30 35 -30 31 0 35
-3 35 -25 l0 -25 405 0 405 0 0 410 0 410 -30 0 c-27 0 -30 3 -30 30 0 23 -4
30 -20 30 -20 0 -20 -7 -20 -385z"/>
<path d="M1270 2445 l0 -55 -40 0 -40 0 0 -605 0 -605 605 0 605 0 0 40 0 40
50 0 50 0 0 40 0 40 -575 0 -575 0 0 580 0 580 -40 0 -40 0 0 -55z"/>
<path d="M3830 1921 l0 -581 -575 0 -575 0 0 -40 0 -40 50 0 50 0 0 -40 0 -40
605 0 605 0 0 605 0 605 -44 0 -45 0 -3 53 c-3 51 -4 52 -35 55 l-33 3 0 -580z"/>
<path d="M780 2390 l0 -70 -55 0 -55 0 0 -830 0 -830 828 2 827 3 3 58 3 57
70 0 70 0 -3 52 -3 53 -787 3 -788 2 0 785 0 785 -55 0 -55 0 0 -70z"/>
<path d="M4290 1675 l0 -785 -787 -2 -788 -3 -3 -53 -3 -52 70 0 70 0 3 -58 3
-57 828 -3 827 -2 0 830 0 830 -65 0 -65 0 0 70 0 70 -45 0 -45 0 0 -785z"/>
<path d="M230 2335 l0 -95 -70 0 -70 0 0 -1080 0 -1080 1080 0 1080 0 0 75 0
75 90 0 90 0 0 70 0 70 -1030 0 -1030 0 0 1030 0 1030 -70 0 -70 0 0 -95z"/>
<path d="M4807 2423 c-4 -3 -7 -467 -7 -1030 l0 -1023 -1025 0 -1025 0 0 -70
0 -70 90 0 90 0 0 -75 0 -75 1080 0 1080 0 0 1080 0 1079 -82 3 -83 3 -3 93
-3 92 -53 0 c-29 0 -56 -3 -59 -7z"/>
</g>
</svg>
